{
  "accessors": [
    {
      "bufferView": 1,
      "componentType": 5126,
      "count": 1745,
      "max": [
        31.862400054931641,
        -68.999000549316406,
        -8.0710000991821289
      ],
      "min": [
        -33.809398651123047,
        -126,
        -38.825901031494141
      ],
      "type": "VEC3"
    },
    {
      "bufferView": 1,
      "byteOffset": 20940,
      "componentType": 5126,
      "count": 1745,
      "max": [
        0.85736674070358276,
        0.99900650978088379,
        1
      ],
      "min": [
        -0.85752195119857788,
        -0.99988639354705811,
        -0.99686068296432495
      ],
      "type": "VEC3"
    },
    {
      "bufferView": 0,
      "componentType": 5125,
      "count": 7605,
      "max": [
        1744
      ],
      "min": [
        0
      ],
      "type": "SCALAR"
    },
    {
      "bufferView": 1,
      "byteOffset": 41880,
      "componentType": 5126,
      "count": 334,
      "max": [
        37.194999694824219,
        0.0010000000474974513,
        28.128999710083008
      ],
      "min": [
        -39.186000823974609,
        -28.440099716186523,
        -20.063999176025391
      ],
      "type": "VEC3"
    },
    {
      "bufferView": 1,
      "byteOffset": 45888,
      "componentType": 5126,
      "count": 334,
      "max": [
        0.9998481273651123,
        0.99995243549346924,
        1
      ],
      "min": [
        -0.99600851535797119,
        -1,
        -1
      ],
      "type": "VEC3"
    },
    {
      "bufferView": 0,
      "byteOffset": 30420,
      "componentType": 5125,
      "count": 1083,
      "max": [
        333
      ],
      "min": [
        0
      ],
      "type": "SCALAR"
    },
    {
      "bufferView": 1,
      "byteOffset": 49896,
      "componentType": 5126,
      "count": 570,
      "max": [
        71.400001525878906,
        -17.278999328613281,
        7.2439999580383301
      ],
      "min": [
        -71.400001525878906,
        -58.999000549316406,
        -24.864999771118164
      ],
      "type": "VEC3"
    },
    {
      "bufferView": 1,
      "byteOffset": 56736,
      "componentType": 5126,
      "count": 570,
      "max": [
        1,
        1,
        1
      ],
      "min": [
        -1,
        -1,
        -0.99997597932815552
      ],
      "type": "VEC3"
    },
    {
      "bufferView": 0,
      "byteOffset": 34752,
      "componentType": 5125,
      "count": 1920,
      "max": [
        569
      ],
      "min": [
        0
      ],
      "type": "SCALAR"
    },
    {
      "bufferView": 1,
      "byteOffset": 63576,
      "componentType": 5126,
      "count": 4628,
      "max": [
        62.014400482177734,
        -28.047300338745117,
        51.26300048828125
      ],
      "min": [
        -59.949798583984375,
        -125.89700317382812,
        -51.263999938964844
      ],
      "type": "VEC3"
    },
    {
      "bufferView": 1,
      "byteOffset": 119112,
      "componentType": 5126,
      "count": 4628,
      "max": [
        1,
        1,
        1
      ],
      "min": [
        -1,
        -1,
        -1
      ],
      "type": "VEC3"
    },
    {
      "bufferView": 0,
      "byteOffset": 42432,
      "componentType": 5125,
      "count": 19308,
      "max": [
        4627
      ],
      "min": [
        0
      ],
      "type": "SCALAR"
    }
  ],
  "asset": {
    "generator": "Sketchfab (OSG glTF plugin)",
    "version": "2.0"
  },
  "bufferViews": [
    {
      "buffer": 0,
      "byteLength": 119664,
      "byteOffset": 0,
      "name": "floatBufferViews",
      "target": 34963
    },
    {
      "buffer": 0,
      "byteLength": 174648,
      "byteOffset": 119664,
      "byteStride": 12,
      "name": "floatBufferViews",
      "target": 34962
    }
  ],
  "buffers": [
    {
      "byteLength": 294312,
      "uri": "scene.bin"
    }
  ],
  "materials": [
    {
      "doubleSided": true,
      "emissiveFactor": [
        0,
        0,
        0
      ],
      "name": "color_-13947343",
      "pbrMetallicRoughness": {
        "baseColorFactor": [
          0.168627,
          0.180392,
          0.19215699999999999,
          1
        ],
        "metallicFactor": 0,
        "roughnessFactor": 1
      }
    },
    {
      "doubleSided": true,
      "emissiveFactor": [
        0,
        0,
        0
      ],
      "name": "color_-1499859",
      "pbrMetallicRoughness": {
        "baseColorFactor": [
          0.91372500000000001,
          0.11372500000000001,
          0.17647099999999999,
          1
        ],
        "metallicFactor": 0,
        "roughnessFactor": 1
      }
    },
    {
      "doubleSided": true,
      "emissiveFactor": [
        0,
        0,
        0
      ],
      "name": "color_-687329",
      "pbrMetallicRoughness": {
        "baseColorFactor": [
          0.96078399999999997,
          0.51372600000000002,
          0.121569,
          1
        ],
        "metallicFactor": 0,
        "roughnessFactor": 1
      }
    },
    {
      "doubleSided": true,
      "emissiveFactor": [
        0,
        0,
        0
      ],
      "name": "color_-8934",
      "pbrMetallicRoughness": {
        "baseColorFactor": [
          1,
          0.86666699999999997,
          0.101961,
          1
        ],
        "metallicFactor": 0,
        "roughnessFactor": 1
      }
    }
  ],
  "meshes": [
    {
      "primitives": [
        {
          "attributes": {
            "NORMAL": 1,
            "POSITION": 0
          },
          "indices": 2,
          "material": 0,
          "mode": 4
        }
      ]
    },
    {
      "primitives": [
        {
          "attributes": {
            "NORMAL": 4,
            "POSITION": 3
          },
          "indices": 5,
          "material": 1,
          "mode": 4
        }
      ]
    },
    {
      "primitives": [
        {
          "attributes": {
            "NORMAL": 7,
            "POSITION": 6
          },
          "indices": 8,
          "material": 2,
          "mode": 4
        }
      ]
    },
    {
      "primitives": [
        {
          "attributes": {
            "NORMAL": 10,
            "POSITION": 9
          },
          "indices": 11,
          "material": 3,
          "mode": 4
        }
      ]
    }
  ],
  "nodes": [
    {
      "children": [
        1
      ],
      "name": "RootNode (gltf orientation matrix)",
      "rotation": [
        -0.70710678118654746,
        -0,
        -0,
        0.70710678118654757
      ]
    },
    {
      "children": [
        2
      ],
      "matrix": [
        1,
        0,
        0,
        0,
        0,
        0,
        -1,
        0,
        0,
        1,
        0,
        0,
        0,
        -66.25128173828125,
        -66.252342224121094,
        1
      ],
      "name": "RootNode (model correction matrix)"
    },
    {
      "children": [
        7
      ],
      "name": "tinker.obj.cleaner.materialmerger.gles"
    },
    {
      "mesh": 0,
      "name": ""
    },
    {
      "mesh": 1,
      "name": ""
    },
    {
      "mesh": 2,
      "name": ""
    },
    {
      "mesh": 3,
      "name": ""
    },
    {
      "children": [
        3,
        4,
        5,
        6
      ],
      "name": "Geode"
    }
  ],
  "scene": 0,
  "scenes": [
    {
      "name": "OSG_Scene",
      "nodes": [
        0
      ]
    }
  ]
}

